<?xml version="1.0" encoding="UTF-8"?>
<svg version="1.1" xmlns="http://www.w3.org/2000/svg" width="48" height="48">
<path d="M0 0 C14.52 0 29.04 0 44 0 C44 10.89 44 21.78 44 33 C29.48 33 14.96 33 0 33 C0 22.11 0 11.22 0 0 Z " fill="#DADADA" transform="translate(2,7)"/>
<path d="M0 0 C14.52 0 29.04 0 44 0 C42.86472603 5.67636986 42.86472603 5.67636986 39.125 8.375 C38.42632812 8.89835938 37.72765625 9.42171875 37.0078125 9.9609375 C36.34523437 10.30382813 35.68265625 10.64671875 35 11 C31.95139986 9.98379995 31.13333078 9.22608429 29 7 C25.30310365 5.15155182 21.03504073 5.52342039 17 6 C13.99167569 7.70340573 13.99167569 7.70340573 12 10 C11.34 10.66 10.68 11.32 10 12 C8.32189696 10.76539562 6.65778346 9.51175741 5 8.25 C3.6078125 7.20585937 3.6078125 7.20585937 2.1875 6.140625 C1.465625 5.43421875 0.74375 4.7278125 0 4 C0 2.68 0 1.36 0 0 Z " fill="#EDEEEE" transform="translate(2,7)"/>
<path d="M0 0 C2.9375 2 2.9375 2 5 5 C5.40476927 7.80743814 5.24230971 10.14074541 5 13 C3.68 13 2.36 13 1 13 C0.67 10.69 0.34 8.38 0 6 C-0.99 8.31 -1.98 10.62 -3 13 C-4.9375 12.6875 -4.9375 12.6875 -7 12 C-7.33 11.01 -7.66 10.02 -8 9 C-8.33 10.98 -8.66 12.96 -9 15 C-8.071875 15 -7.14375 15 -6.1875 15 C-0 15 -0 15 2.5 15.0625 C5.13147344 15.1186307 5.13147344 15.1186307 8 14 C10.26171875 15.14453125 10.26171875 15.14453125 12.6875 16.8125 C13.49574219 17.35519531 14.30398437 17.89789062 15.13671875 18.45703125 C15.75160156 18.96621094 16.36648437 19.47539063 17 20 C17 20.66 17 21.32 17 22 C11.72 22 6.44 22 1 22 C1 21.01 1 20.02 1 19 C0.40832031 19.05800781 -0.18335938 19.11601563 -0.79296875 19.17578125 C-5.07431492 19.42023005 -7.35616002 19.40732734 -11.0625 17.0625 C-13.31003311 13.50994766 -13.7961723 11.3081864 -13.546875 7.16015625 C-13 5 -13 5 -10.4375 1.9375 C-6.44270148 -0.31411371 -4.50616365 -0.81930248 0 0 Z " fill="#E5E8EA" transform="translate(28,14)"/>
<path d="M0 0 C2.98990788 1.24579495 4.39265669 2.19020892 6.3125 4.75 C7.57375372 8.87773945 7.71874263 12.52468618 5.8125 16.4375 C4 18 4 18 1.5 18.25 C0.675 18.1675 -0.15 18.085 -1 18 C-1.99 18 -2.98 18 -4 18 C-6.00309329 17.68578929 -8.00371336 17.3548954 -10 17 C-10 15.02 -10 13.04 -10 11 C-9.34 10.67 -8.68 10.34 -8 10 C-7.67 11.32 -7.34 12.64 -7 14 C-6.01 14 -5.02 14 -4 14 C-3.566875 12.5459375 -3.566875 12.5459375 -3.125 11.0625 C-2 8 -2 8 0 7 C0 9.64 0 12.28 0 15 C1.32 15 2.64 15 4 15 C3.74476126 13.37247769 3.47025506 11.74796804 3.1875 10.125 C3.03667969 9.22007813 2.88585937 8.31515625 2.73046875 7.3828125 C2.16948699 4.65587522 2.16948699 4.65587522 -1 3 C-4.96913548 2.55898495 -7.33283323 2.67351414 -10.9375 4.4375 C-13.56485625 7.7017911 -13.6761137 9.77307182 -13.40625 13.875 C-13.08948719 16.15949705 -13.08948719 16.15949705 -11.5625 18.5 C-7.85873817 20.66805571 -4.23196903 20.81914662 0 21 C0 21.99 0 22.98 0 24 C-4.77003402 24.38160272 -8.09465992 24.4609004 -12.4375 22.25 C-15.39412515 19.65393889 -16.70087707 17.73176435 -17.37109375 13.8515625 C-17.4973398 9.61860669 -17.37350209 6.85657778 -14.625 3.5 C-10.09286556 -0.81631851 -6.0448085 -0.53308547 0 0 Z " fill="#49AADE" transform="translate(29,12)"/>
<path d="M0 0 C0.33 0 0.66 0 1 0 C1 7.92 1 15.84 1 24 C-9.72928507 17.86897996 -9.72928507 17.86897996 -10.70703125 14.73046875 C-10.82431286 11.90267872 -10.79641661 9.72815051 -10 7 C-7.31046164 4.35281657 -4.33996144 2.71101994 -1 1 C-0.67 0.67 -0.34 0.34 0 0 Z " fill="#BEBEBF" transform="translate(45,11)"/>
<path d="M0 0 C9 6 9 6 10 7 C10.23363881 8.84891946 10.41303635 10.70488031 10.5625 12.5625 C10.64628906 13.57441406 10.73007813 14.58632813 10.81640625 15.62890625 C10.87699219 16.41136719 10.93757812 17.19382812 11 18 C7.35918868 20.10046807 3.76198844 22.11900578 0 24 C0 16.08 0 8.16 0 0 Z " fill="#C0C1C1" transform="translate(2,11)"/>
<path d="M0 0 C0.33 0 0.66 0 1 0 C1 2.64 1 5.28 1 8 C2.32 8 3.64 8 5 8 C5.33 5.36 5.66 2.72 6 0 C6.66 0 7.32 0 8 0 C8.36108597 6.25882353 8.36108597 6.25882353 6.8125 9.4375 C5 11 5 11 2.5 11.25 C1.675 11.1675 0.85 11.085 0 11 C-0.99 11 -1.98 11 -3 11 C-5.00309329 10.68578929 -7.00371336 10.3548954 -9 10 C-9 8.02 -9 6.04 -9 4 C-8.34 3.67 -7.68 3.34 -7 3 C-6.67 4.32 -6.34 5.64 -6 7 C-5.01 7 -4.02 7 -3 7 C-2.690625 6.030625 -2.38125 5.06125 -2.0625 4.0625 C-1 1 -1 1 0 0 Z " fill="#308DCC" transform="translate(28,19)"/>
<path d="M0 0 C2.375 0.8125 2.375 0.8125 3.375 2.8125 C2.76921747 4.83177511 2.10580266 6.83503397 1.375 8.8125 C-0.5625 8.5 -0.5625 8.5 -2.625 7.8125 C-2.955 6.8225 -3.285 5.8325 -3.625 4.8125 C-4.285 6.1325 -4.945 7.4525 -5.625 8.8125 C-5.98575949 3.40110759 -5.98575949 3.40110759 -4.4375 0.875 C-2.625 -0.1875 -2.625 -0.1875 0 0 Z M3.375 -0.1875 C4.365 -0.1875 5.355 -0.1875 6.375 -0.1875 C6.375 2.7825 6.375 5.7525 6.375 8.8125 C6.045 8.8125 5.715 8.8125 5.375 8.8125 C5.230625 7.69875 5.08625 6.585 4.9375 5.4375 C4.59127965 1.99107953 4.59127965 1.99107953 3.375 -0.1875 Z " fill="#5BB0DF" transform="translate(23.625,18.1875)"/>
<path d="M0 0 C0.268125 0.556875 0.53625 1.11375 0.8125 1.6875 C3.06711799 6.62575086 3.06711799 6.62575086 7 10 C8.53668865 10.22467831 10.07968054 10.40796805 11.625 10.5625 C12.44226562 10.64628906 13.25953125 10.73007812 14.1015625 10.81640625 C14.72804688 10.87699219 15.35453125 10.93757813 16 11 C16 11.99 16 12.98 16 14 C11.22996598 14.38160272 7.90534008 14.4609004 3.5625 12.25 C0.23331472 9.32681292 -0.88024179 7.71653437 -1.1875 3.3125 C-1 1 -1 1 0 0 Z " fill="#3A8DCA" transform="translate(13,22)"/>
<path d="M0 0 C0.66 0.33 1.32 0.66 2 1 C2 1.66 2 2.32 2 3 C1.195625 3.556875 0.39125 4.11375 -0.4375 4.6875 C-3.72579387 7.65498471 -3.75085983 9.68157031 -4 14 C-5.5625 12.875 -5.5625 12.875 -7 11 C-7.06893801 7.82885156 -6.8078011 5.85689399 -4.5859375 3.5 C-3.10923374 2.2682471 -1.55804894 1.12709924 0 0 Z " fill="#6BC8ED" transform="translate(19,12)"/>
<path d="M0 0 C0.268125 0.556875 0.53625 1.11375 0.8125 1.6875 C2.57662422 5.12289979 4.25793106 8.25793106 7 11 C5.68 11.33 4.36 11.66 3 12 C-1.6741573 5.71910112 -1.6741573 5.71910112 -1 1 C-0.67 0.67 -0.34 0.34 0 0 Z " fill="#4AA9DC" transform="translate(13,22)"/>
<path d="M0 0 C0.66 0 1.32 0 2 0 C2.36300778 6.29213483 2.36300778 6.29213483 0.75 9.4375 C-1 11 -1 11 -5 11 C-5 10.34 -5 9.68 -5 9 C-4.01 8.67 -3.02 8.34 -2 8 C-1.19787372 6.12612784 -1.19787372 6.12612784 -0.8125 3.9375 C-0.65394531 3.20402344 -0.49539062 2.47054688 -0.33203125 1.71484375 C-0.22246094 1.14894531 -0.11289062 0.58304688 0 0 Z " fill="#1B7BC3" transform="translate(34,19)"/>
<path d="M0 0 C1.48555383 0.92734572 2.96327506 1.86724813 4.4375 2.8125 C5.26121094 3.33457031 6.08492187 3.85664063 6.93359375 4.39453125 C9 6 9 6 10 9 C6.01457486 7.63356852 3.07460137 5.89890986 0 3 C0 2.01 0 1.02 0 0 Z " fill="#B2B2B2" transform="translate(2,11)"/>
<path d="M0 0 C1.32 0 2.64 0 4 0 C4 1.65 4 3.3 4 5 C2.68 5.33 1.36 5.66 0 6 C0 4.02 0 2.04 0 0 Z " fill="#E7EAED" transform="translate(22,21)"/>
<path d="M0 0 C0.268125 0.61875 0.53625 1.2375 0.8125 1.875 C1.95556848 4.2995233 1.95556848 4.2995233 5 6 C4.01 6 3.02 6 2 6 C1.67 6.66 1.34 7.32 1 8 C0.34 7.67 -0.32 7.34 -1 7 C-1.04254356 5.00045254 -1.04080783 2.99958364 -1 1 C-0.67 0.67 -0.34 0.34 0 0 Z " fill="#3C9ED7" transform="translate(20,22)"/>
<path d="M0 0 C0.33 0 0.66 0 1 0 C1 1.98 1 3.96 1 6 C-0.98 6.99 -0.98 6.99 -3 8 C-1.125 1.125 -1.125 1.125 0 0 Z " fill="#3596D2" transform="translate(28,19)"/>
</svg>
